<?xml version="1.0" encoding="utf-8"?>
<!-- Generator: Adobe Illustrator 27.4.1, SVG Export Plug-In . SVG Version: 6.00 Build 0)  -->
<svg version="1.1" id="Ebene_1" xmlns="http://www.w3.org/2000/svg" xmlns:xlink="http://www.w3.org/1999/xlink" x="0px" y="0px"
	 viewBox="0 0 1280 1280" style="enable-background:new 0 0 1280 1280;" xml:space="preserve">
<g transform="translate(0.000000,1280.000000) scale(0.100000,-0.100000)">
	<path fill="#eee9" d="M6576.3,11337.6c-640.7-601.5-1481.5-971.2-2467.3-1083.6c-209.1-23.2-845.3-19.7-1051,5.8
		c-592.4,75.3-1107.2,242.2-1513,489.1c-47.2,29-89.9,48.7-94.4,44c-16.9-20.9-428.3-1339.7-419.3-1346.7c4.5-4.6,39.3-29,75.3-53.3
		c188.8-129.8,357.5-374.3,456.4-660.6c104.5-307.1,130.4-566.7,105.7-1101c-70.8-1592.3,116.9-2879.9,580-3975.1
		c408-964.2,1057.7-1773.1,1904.2-2375.8C4671,913.2,5135.2,674.5,6126.7,264.2C6266.1,207.4,6451.5,124,6539.2,80l159.6-80
		l160.7,80c88.8,45.2,335,154.1,548.5,242.2c213.6,89.2,471,199.3,573.3,245.7c242.8,110.1,652,322.2,848.7,441.5
		c1735.6,1046.5,2683.1,2710.7,2877.6,5051.7c42.7,518,47.2,1030.3,14.6,1664.2c-23.6,480.9,29.2,843.7,172,1162.4
		c91,202.8,252.9,407.9,409.2,518c37.1,26.7,66.3,52.2,66.3,57.9c-3.4,19.7-420.4,1329.3-424.9,1333.9
		c-2.2,3.5-58.5-26.7-123.6-66.1c-379.9-228.3-909.4-397.5-1468-469.4c-194.5-25.5-717.2-35.9-928.5-18.5
		c-1055.5,86.9-1975,479.8-2647.2,1134.6c-41.6,39.4-76.4,71.9-78.7,71.9C6696.6,11448.8,6641.5,11399,6576.3,11337.6z"/>
</g>
</svg>
