<?xml version="1.0" standalone="no"?>
<!DOCTYPE svg PUBLIC "-//W3C//DTD SVG 20010904//EN"
 "http://www.w3.org/TR/2001/REC-SVG-20010904/DTD/svg10.dtd">
<svg version="1.0" xmlns="http://www.w3.org/2000/svg"
 width="1280.000000pt" height="1280.000000pt" viewBox="0 0 1280.000000 1280.000000"
 preserveAspectRatio="xMidYMid meet">
<g transform="translate(0.000000,1280.000000) scale(0.100000,-0.100000)"
fill="#eee9" stroke="none">
<path d="M6590 11353 c-570 -519 -1318 -838 -2195 -935 -186 -20 -752 -17
-935 5 -527 65 -985 209 -1346 422 -42 25 -80 42 -84 38 -15 -18 -381 -1156
-373 -1162 4 -4 35 -25 67 -46 168 -112 318 -323 406 -570 93 -265 116 -489
94 -950 -63 -1374 104 -2485 516 -3430 363 -832 941 -1530 1694 -2050 461
-317 874 -523 1756 -877 124 -49 289 -121 367 -159 l142 -69 143 69 c79 39
298 133 488 209 190 77 419 172 510 212 216 95 580 278 755 381 1544 903 2387
2339 2560 4359 38 447 42 889 13 1436 -21 415 26 728 153 1003 81 175 225 352
364 447 33 23 59 45 59 50 -3 17 -374 1147 -378 1151 -2 3 -52 -23 -110 -57
-338 -197 -809 -343 -1306 -405 -173 -22 -638 -31 -826 -16 -939 75 -1757 414
-2355 979 -37 34 -68 62 -70 62 -2 -1 -51 -44 -109 -97z"/>
</g>
</svg>
